# xmcd CD database file generated by Grip 2.94
# 
# Track frame offsets:
#       150
#       20647
#       33335
#       44772
#       58510
#       78627
#       89532
#       107512
#       123442
#       138317
#       153937
#       167155
# 
# Disc length: 2366 seconds
# 
# Revision: 3
# Processed by: cddbd v1.4b41PL1 Copyright (c) Steve Scherf et al.
# Submitted via: Grip 2.94
# 
DISCID=9d093c0c
DTITLE=Rock Cat Rock - Mess Around
DYEAR=1900
DGENRE=
TTITLE0=Make It Right
TTITLE1=Bopalena
TTITLE2=One After 9:09
TTITLE3=Folsom Prison Blues
TTITLE4=Ain't Nothing Wrong With Me (A Hundred Dollars Wont Fix)
TTITLE5=You Know What I Mean
TTITLE6=I'll See You Again (Someday)
TTITLE7=His Latest Flame
TTITLE8=Closer Closer
TTITLE9=Baby What You Want
TTITLE10=Guitars and Cadillacs
TTITLE11=Mess Around
EXTD=
EXTT0=
EXTT1=
EXTT2=
EXTT3=
EXTT4=
EXTT5=
EXTT6=
EXTT7=
EXTT8=
EXTT9=
EXTT10=
EXTT11=
PLAYORDER=
